PathFileType	4	(X/Y/Z)	C:/Users/opensim2020/Desktop/walking_exp_matlab/subject01_walking15_straight_02.trc	
DataRate	CameraRate	NumFrames	NumMarkers	Units	OrigDataRate	OrigDataStartFrame	OrigNumFrames	
100.00	100.00	6	43	mm	100.00	1145	135	
Frame#	Time	LFHD			RFHD			LBHD			RBHD			C7			T10			CLAV			STRN			RBAK			LSHO			LUPA			LELB			LFRM			LWRA			LWRB			LFIN			RSHO			RUPA			RELB			RFRM			RWRA			RWRB			RFIN			LASI			RASI			LPSI			RPSI			LTHI			LKNE			LTIB			LANK			LHEE			LTOE			RTHI			RKNE			RTIB			RANK			RHEE			RTOE			*39			*40			*41			*42			
		X1	Y1	Z1	X2	Y2	Z2	X3	Y3	Z3	X4	Y4	Z4	X5	Y5	Z5	X6	Y6	Z6	X7	Y7	Z7	X8	Y8	Z8	X9	Y9	Z9	X10	Y10	Z10	X11	Y11	Z11	X12	Y12	Z12	X13	Y13	Z13	X14	Y14	Z14	X15	Y15	Z15	X16	Y16	Z16	X17	Y17	Z17	X18	Y18	Z18	X19	Y19	Z19	X20	Y20	Z20	X21	Y21	Z21	X22	Y22	Z22	X23	Y23	Z23	X24	Y24	Z24	X25	Y25	Z25	X26	Y26	Z26	X27	Y27	Z27	X28	Y28	Z28	X29	Y29	Z29	X30	Y30	Z30	X31	Y31	Z31	X32	Y32	Z32	X33	Y33	Z33	X34	Y34	Z34	X35	Y35	Z35	X36	Y36	Z36	X37	Y37	Z37	X38	Y38	Z38	X39	Y39	Z39	X40	Y40	Z40	X41	Y41	Z41	X42	Y42	Z42	X43	Y43	Z43	

1	0.000	-970.38562	941.78601	1657.29480	-1077.43066	904.68805	1673.95508	-1008.19904	1049.90723	1610.03564	-1121.83899	1014.13043	1626.41187	-1046.71594	1074.90234	1432.20557	-1067.40466	1138.04834	1142.95520	-1063.27588	933.02960	1357.50574	-1073.88269	903.66779	1199.22058	-1131.96924	1151.54150	1253.52368	-896.63043	979.51831	1380.61072	-818.64771	1018.94873	1197.22974	-824.17310	1052.24231	1048.23486	-811.04852	1019.71399	936.61237	-839.74756	948.24805	819.48810	-817.48297	1003.45630	814.95880	-809.69684	959.90063	744.11346	-1204.46472	1005.68768	1407.88086	-1311.67139	1108.24841	1233.19971	-1329.06018	1121.85999	1106.35461	-1366.22998	1082.56982	991.24097	-1352.99463	986.03833	886.87213	-1391.58167	1028.42273	882.75787	-1395.63513	979.26471	810.80725	-979.47681	957.43445	934.27124	-1196.38660	979.38019	933.06500	-1014.29486	1147.29358	942.35962	-1158.19849	1158.01685	943.18970	-947.66772	957.43665	596.40625	-978.92255	958.09589	462.60345	-989.17847	1015.64478	279.77335	-1065.98389	1054.85254	73.44261	-1122.04175	1100.08081	47.79871	-1056.64026	909.88562	38.66173	-1281.00806	989.64636	603.09387	-1279.64941	966.79401	446.88211	-1273.27893	1119.51575	361.90939	-1218.92297	1283.18652	242.33611	-1158.61133	1330.04993	257.28989	-1229.56323	1259.42224	98.15193	-1054.58044	922.69818	1704.74316	-3101.93262	1973.09009	1024.08630	-3140.74585	2012.53186	1022.00140			 
2	0.010	-971.36871	929.24951	1658.57727	-1078.36047	891.86011	1674.88599	-1009.27881	1037.40649	1611.59583	-1122.77112	1001.33783	1627.56433	-1047.33423	1062.76404	1433.31201	-1068.04993	1125.63843	1144.01453	-1063.22595	921.21094	1358.64453	-1073.76807	891.37762	1200.44836	-1132.51013	1139.11340	1254.50098	-897.08490	967.50616	1382.26880	-818.89459	1005.38049	1198.68738	-824.02722	1036.54248	1048.87830	-811.82007	1000.10974	938.06982	-841.00024	924.30768	823.94635	-818.82654	979.32581	817.14404	-811.31134	933.29456	748.17419	-1205.05518	993.46210	1408.77502	-1311.43811	1096.87268	1234.13147	-1328.38416	1111.06006	1107.47986	-1365.74170	1074.36523	991.68237	-1353.00781	980.45068	884.71460	-1391.54602	1023.05121	881.75653	-1395.34998	975.91547	808.35944	-979.05847	945.90979	935.04889	-1195.81714	966.37799	934.25598	-1016.21710	1135.52075	943.57764	-1160.32019	1144.76770	944.80151	-948.36816	951.59485	596.33258	-979.15234	954.63788	462.40332	-989.45538	1013.92303	280.06763	-1066.09485	1054.54053	73.75832	-1122.00940	1100.05188	48.39293	-1056.50281	909.72125	38.50697	-1280.79041	968.58105	605.77045	-1279.10608	941.97620	450.26843	-1273.56128	1092.85474	362.63672	-1221.00635	1253.80469	238.06694	-1161.10547	1302.51453	250.46928	-1231.36072	1222.33801	95.55530	-1055.43262	909.99963	1705.71265	-3102.02075	1973.17395	1023.52283	-3140.79297	2012.50427	1022.06372			 
3	0.020	-972.36133	916.83990	1659.82141	-1079.37427	879.11621	1675.72437	-1010.41162	1024.99292	1613.00525	-1124.03845	988.71509	1628.62610	-1047.94800	1050.51868	1434.32202	-1068.68994	1113.23352	1144.96301	-1063.43652	909.12750	1359.77075	-1073.79639	879.05249	1201.53723	-1133.06396	1126.67896	1255.40796	-897.54694	955.50653	1383.83203	-819.10052	991.98187	1200.11707	-824.29376	1020.57550	1049.35181	-812.66357	980.29663	939.76685	-842.27454	900.21545	828.92261	-820.23615	955.12787	819.94733	-812.92792	906.57538	752.75275	-1205.52600	981.22156	1409.62183	-1311.20093	1085.47913	1235.05518	-1327.54456	1100.28662	1108.48584	-1365.33203	1066.17053	991.96454	-1353.09399	975.08502	882.63202	-1391.22205	1018.03387	880.77002	-1395.53320	972.76593	806.10126	-978.98755	934.83362	935.65613	-1194.98608	952.88477	935.80389	-1018.12146	1123.71423	944.72974	-1162.42004	1131.55432	946.38110	-948.71320	945.45380	596.17493	-979.43512	951.39301	462.14206	-989.71234	1012.28448	280.47491	-1066.12329	1054.35193	74.13041	-1122.18872	1099.82275	48.91452	-1056.17651	909.71637	38.49152	-1280.75769	948.03333	608.61749	-1278.67017	917.57361	453.96582	-1273.84204	1066.28015	362.88754	-1222.58203	1223.60547	232.47600	-1163.49023	1274.38574	242.05833	-1233.46313	1184.22168	92.46257	-1056.44751	897.25757	1706.70789	-3102.00439	1973.01770	1023.41461	-3140.73218	2012.52637	1022.05432			 
4	0.030	-973.47437	904.48212	1660.96924	-1080.46606	866.54395	1676.45569	-1011.59131	1012.66162	1614.29114	-1125.23975	976.12646	1629.46265	-1048.55762	1038.31067	1435.15601	-1069.28015	1100.73840	1145.78162	-1063.99817	896.90253	1360.79150	-1073.79346	866.68933	1202.45850	-1133.60852	1114.20544	1256.19238	-898.02081	943.54285	1385.31909	-819.24152	978.58368	1201.52344	-824.64874	1004.96686	1049.89880	-813.29547	960.82819	941.67688	-843.44867	876.20740	834.33478	-821.67920	930.95410	823.06116	-814.63019	879.43243	757.74402	-1205.96826	968.96149	1410.34033	-1310.97412	1073.98950	1235.77905	-1326.65613	1089.48193	1109.35339	-1364.78857	1058.12000	992.22827	-1353.14209	969.85486	880.45374	-1391.35791	1012.87030	879.95581	-1395.69629	969.80316	803.92255	-978.54614	924.05511	936.11987	-1194.53516	939.56415	937.02606	-1019.94275	1111.84229	945.74194	-1164.35742	1118.13391	947.71448	-949.43402	939.93488	596.12769	-979.83630	947.89752	461.89914	-989.90814	1010.76276	280.90909	-1065.94434	1054.04004	74.67631	-1122.45300	1099.53821	49.56635	-1056.10059	909.62512	38.46730	-1280.66931	927.97369	611.44287	-1277.78870	893.73602	457.76041	-1274.23743	1040.11609	362.74905	-1224.33008	1192.97278	225.91168	-1165.76477	1245.34045	232.26807	-1235.89709	1145.34143	89.09588	-1057.72607	884.65155	1707.53711	-3101.99878	1973.11316	1023.39917	-3140.75049	2012.54321	1022.04523			 
5	0.040	-974.59174	892.23364	1661.91296	-1081.61365	854.07813	1677.07556	-1012.75946	1000.39197	1615.34937	-1126.31335	963.62866	1630.06323	-1049.14526	1026.06226	1435.80103	-1069.82056	1088.31616	1146.47900	-1064.19873	884.67303	1361.55957	-1073.81030	854.31226	1203.33142	-1134.09033	1101.70740	1256.75171	-898.52850	931.55975	1386.62744	-819.31995	965.30121	1202.82837	-824.63684	989.63556	1050.72266	-813.96649	941.30072	943.65607	-844.48560	852.33905	840.11566	-822.78424	906.64069	826.62671	-816.24286	852.45422	763.28235	-1206.57568	956.65009	1410.89673	-1310.65137	1062.56494	1236.35217	-1325.81592	1078.69727	1110.10022	-1364.32446	1050.16797	992.55353	-1353.24463	964.69275	878.29932	-1391.09143	1007.91394	879.13489	-1395.98425	967.00366	801.83643	-978.27893	912.32898	936.57147	-1194.18542	926.27679	938.31909	-1021.75244	1099.93140	946.68921	-1166.24805	1104.97583	948.88501	-949.99512	934.36804	595.91956	-980.19171	944.45905	461.79059	-990.11450	1009.41199	281.41135	-1065.94629	1053.85913	75.18783	-1122.71899	1099.24194	50.51004	-1056.05151	909.46606	38.48431	-1280.72205	908.37994	614.35358	-1277.05798	870.62823	461.33008	-1274.25769	1013.61133	361.39975	-1226.11304	1161.65454	218.33153	-1168.03333	1215.22986	221.36034	-1238.68823	1105.56201	85.38008	-1059.31653	872.00635	1708.41760	-3101.91382	1973.25085	1023.44666	-3140.75488	2012.50464	1022.05438			 
6	0.050	-975.69159	880.06915	1662.82312	-1082.77966	841.71973	1677.58838	-1013.98376	988.22571	1616.17468	-1128.19885	951.27588	1630.71948	-1049.81189	1013.88733	1436.30420	-1070.28455	1075.73401	1146.98608	-1064.52869	872.41974	1362.21436	-1073.77576	841.94104	1204.08875	-1134.44617	1089.14526	1257.08020	-898.99457	919.58405	1387.88672	-819.38501	952.30878	1204.13123	-824.33496	974.63306	1051.45642	-814.42719	922.23346	945.80804	-845.42755	828.65466	846.32629	-824.48474	882.23566	830.25293	-817.70660	825.67963	769.39722	-1207.06189	944.27979	1411.26904	-1310.33105	1051.00842	1236.68127	-1325.04248	1067.82190	1110.71362	-1363.80273	1042.21350	992.62677	-1353.48682	959.50244	876.38470	-1390.91504	1003.09955	878.01135	-1396.53589	964.27167	799.92548	-978.05188	900.59314	936.85181	-1193.91040	913.06342	939.16931	-1023.39862	1087.89746	947.53052	-1168.01404	1091.72913	949.78558	-950.40216	928.78613	595.76184	-980.54968	941.15747	461.77023	-990.40247	1007.99036	282.00806	-1066.10962	1053.55054	75.85672	-1123.24597	1098.70740	51.26940	-1055.99817	909.34344	38.30575	-1280.63586	889.29114	617.03748	-1276.04541	848.20624	464.65222	-1274.46875	987.44220	359.44000	-1227.90588	1129.69946	209.80823	-1170.02820	1184.00354	209.14812	-1241.57837	1065.62476	81.37143	-1060.45630	859.79120	1708.87341	-3102.02881	1973.07434	1023.77783	-3140.91235	2012.42761	1022.00568			 
